<svg xmlns="http://www.w3.org/2000/svg" viewBox="0 0 64 64" fill="none">
  <rect x="10" y="8" width="44" height="48" rx="8" fill="#fff"/>
  <path d="M18 8h28a8 8 0 0 1 8 8v8H10v-8a8 8 0 0 1 8-8z" fill="#4285F4"/>
  <path d="M18 56h28a8 8 0 0 0 8-8V24H10v24a8 8 0 0 0 8 8z" fill="#fff"/>
  <path d="M10 24h44v8H10z" fill="#E8F0FE"/>
  <path d="M18 8h10v48H18a8 8 0 0 1-8-8V16a8 8 0 0 1 8-8z" fill="#34A853"/>
  <path d="M46 8h-9v48h9a8 8 0 0 0 8-8V16a8 8 0 0 0-8-8z" fill="#FBBC04"/>
  <path d="M10 40h44v8a8 8 0 0 1-8 8H18a8 8 0 0 1-8-8z" fill="#EA4335"/>
  <rect x="16" y="14" width="32" height="36" rx="4" fill="#fff"/>
  <path d="M22 24h20" stroke="#5F6368" stroke-width="3" stroke-linecap="round"/>
  <path d="M31.3 43v-8.9l-2.8 1.7-1.5-2.4 5.1-3.1h2.3V43h-3.1zm9.4.2c-1.5 0-2.8-.4-3.9-1.1l1.2-2.5c.8.5 1.6.8 2.6.8 1.3 0 2.1-.6 2.1-1.6 0-1.1-.8-1.7-2.4-1.7h-1.2v-2.3h1.2c1.3 0 2-.5 2-1.5 0-.8-.6-1.3-1.7-1.3-.8 0-1.6.3-2.3.8l-1.2-2.3c1-.7 2.3-1.1 3.8-1.1 2.9 0 4.7 1.4 4.7 3.6 0 1.3-.7 2.3-1.9 2.8 1.5.5 2.4 1.7 2.4 3.3 0 2.5-2.1 4.1-5.2 4.1z" fill="#202124"/>
</svg>
